<?xml version="1.0" encoding="UTF-8" standalone="no"?>
<!-- Created with Inkscape (http://www.inkscape.org/) -->

<svg
   xmlns:dc="http://purl.org/dc/elements/1.1/"
   xmlns:cc="http://creativecommons.org/ns#"
   xmlns:rdf="http://www.w3.org/1999/02/22-rdf-syntax-ns#"
   xmlns:svg="http://www.w3.org/2000/svg"
   xmlns="http://www.w3.org/2000/svg"
   xmlns:sodipodi="http://sodipodi.sourceforge.net/DTD/sodipodi-0.dtd"
   xmlns:inkscape="http://www.inkscape.org/namespaces/inkscape"
   width="210mm"
   height="297mm"
   id="svg2"
   version="1.1"
   inkscape:version="0.48.4 r9939"
   sodipodi:docname="design_noeud.svg">
  <defs
     id="defs4" />
  <sodipodi:namedview
     id="base"
     pagecolor="#ffffff"
     bordercolor="#666666"
     borderopacity="1.0"
     inkscape:pageopacity="0.0"
     inkscape:pageshadow="2"
     inkscape:zoom="0.49497475"
     inkscape:cx="-58.934637"
     inkscape:cy="696.70729"
     inkscape:document-units="px"
     inkscape:current-layer="layer1"
     showgrid="false"
     inkscape:window-width="1920"
     inkscape:window-height="1056"
     inkscape:window-x="0"
     inkscape:window-y="0"
     inkscape:window-maximized="1"
     showguides="false"
     inkscape:guide-bbox="true">
    <sodipodi:guide
       orientation="0,1"
       position="335.37064,563.66512"
       id="guide4002" />
    <sodipodi:guide
       orientation="0,1"
       position="410.12193,490.93414"
       id="guide4004" />
    <sodipodi:guide
       orientation="1,0"
       position="187.88837,913.1779"
       id="guide4006" />
  </sodipodi:namedview>
  <metadata
     id="metadata7">
    <rdf:RDF>
      <cc:Work
         rdf:about="">
        <dc:format>image/svg+xml</dc:format>
        <dc:type
           rdf:resource="http://purl.org/dc/dcmitype/StillImage" />
        <dc:title />
      </cc:Work>
    </rdf:RDF>
  </metadata>
  <g
     inkscape:label="Calque 1"
     inkscape:groupmode="layer"
     id="layer1">
    <rect
       style="fill:#6f6f6f;fill-opacity:1;stroke:#ffffff;stroke-width:1.66782593999999995;stroke-opacity:1"
       id="rect2985-7"
       width="480.14438"
       height="420.43155"
       x="89.237556"
       y="189.58786">
      <title
         id="title2987-0">corps</title>
    </rect>
    <rect
       style="fill:#2d2d2d;fill-opacity:1;stroke:#ffffff;stroke-width:1.42373133;stroke-opacity:1"
       id="rect2985"
       width="399.57626"
       height="368.14771"
       x="121.04871"
       y="210.62045">
      <title
         id="title2987">corps</title>
    </rect>
    <rect
       style="fill:#0020b3;fill-opacity:1;stroke:#ffffff;stroke-width:1.06624281;stroke-opacity:1"
       id="rect3757"
       width="133.23906"
       height="141.36234"
       x="124.31883"
       y="320.96671" />
    <flowRoot
       xml:space="preserve"
       id="flowRoot3759"
       style="font-size:40px;font-style:normal;font-weight:normal;line-height:125%;letter-spacing:0px;word-spacing:0px;fill:#ffffff;fill-opacity:1;stroke:none;font-family:Sans"
       transform="translate(14.978973,-2.0203051)"><flowRegion
         id="flowRegion3761"><rect
           id="rect3763"
           width="205.71428"
           height="71.428574"
           x="274.28571"
           y="368.07648"
           style="fill:#ffffff;fill-opacity:1" /></flowRegion><flowPara
         id="flowPara3765">Opérateur</flowPara></flowRoot>    <rect
       style="fill:#ffffff;fill-opacity:1;stroke:#ffffff;stroke-opacity:1"
       id="rect3767"
       width="398.57144"
       height="2.8571298"
       x="118.81654"
       y="321.53256" />
    <rect
       style="fill:#413ca8;fill-opacity:1;stroke:#ffffff;stroke-width:0.89222622;stroke-opacity:1"
       id="rect3769"
       width="83.006973"
       height="71.536346"
       x="160.00562"
       y="213.50618" />
    <rect
       style="fill:#413ca8;fill-opacity:1;stroke:#ffffff;stroke-width:0.97887385;stroke-opacity:1"
       id="rect3771"
       width="88.144386"
       height="72.878265"
       x="283.28754"
       y="500.84622" />
    <rect
       style="fill:#413ca8;fill-opacity:1;stroke:#ffffff;stroke-width:0.81684816;stroke-opacity:1"
       id="rect3773"
       width="80.613876"
       height="73.040298"
       x="279.87363"
       y="212.03987" />
    <path
       style="fill:none;stroke:#000000;stroke-width:1px;stroke-linecap:butt;stroke-linejoin:miter;stroke-opacity:1"
       d="m 217.14286,82.362182 c -15.21732,-2.536219 -5.13256,-3.244961 -10,0 -0.88597,0.590642 -1.82414,1.170321 -2.85715,1.428572 -0.92394,0.230986 -2.0053,-0.425918 -2.85714,0 -1.20468,0.602338 -1.65246,2.254804 -2.85714,2.857142 -0.85184,0.425918 -2.00531,-0.425917 -2.85714,0 -2.85715,1.428572 -2.14286,2.857143 -4.28572,4.285715 -0.88596,0.590641 -1.97118,0.83793 -2.85714,1.428571 -0.56033,0.373555 -0.95238,0.952381 -1.42857,1.428572 -1.90476,1.904761 -3.80953,3.809523 -5.71429,5.714285 -0.47619,0.476191 -0.95238,0.952381 -1.42857,1.428571 -0.47619,0.47619 -1.1274,0.82623 -1.42857,1.42857 -0.21185,0.4237 0,7.18967 0,8.57143 0,2.49166 -0.26363,4.8866 1.42857,7.14286 0.63888,0.85183 1.90476,0.95238 2.85714,1.42857 0.95238,0.47619 1.84699,1.09185 2.85715,1.42857 0.98261,0.32754 3.44282,-0.42144 4.28571,0 0.60234,0.30117 0.82623,1.1274 1.42857,1.42857 0.85184,0.42592 2.00531,-0.42592 2.85714,0 1.20468,0.60234 1.57939,2.43123 2.85715,2.85714 0.90351,0.30117 1.90476,0 2.85714,0 3.33333,0 6.66667,0 10,0 0.98646,0 5.27995,0.21717 5.71429,0 1.71428,-0.85714 2.57142,-3.42857 4.28571,-4.28571 1.97051,-0.98525 1.27782,1.73008 2.85714,-1.42857 0.21296,-0.42592 -0.21296,-1.00265 0,-1.42857 0.30117,-0.60234 1.12741,-0.82623 1.42857,-1.42857 0.21296,-0.42592 0,-0.95238 0,-1.42858 0,-0.95238 0,-1.90476 0,-2.85714 0,-2.38095 0,-4.7619 0,-7.14286 0,-0.64336 0.21739,-3.85095 0,-4.28571 -0.30116,-0.60234 -1.1274,-0.82623 -1.42857,-1.428571 -0.21296,-0.425917 0.21296,-1.002653 0,-1.428571 -0.45498,-0.90996 -6.02033,-6.020332 -7.14285,-7.142857 -0.47619,-0.476191 -1.53929,-0.7643 -1.42858,-1.428572 0.42158,-2.529473 4.2796,-5.009177 2.85715,-7.142857 -1.18129,-1.771925 -3.80953,1.904762 -5.71429,2.857143"
       id="path3777"
       inkscape:connector-curvature="0" />
    <path
       style="fill:none;stroke:#000000;stroke-width:1px;stroke-linecap:butt;stroke-linejoin:miter;stroke-opacity:1"
       d="m 262.85714,88.076468 c -1.90476,-0.952381 -3.69398,-2.183708 -5.71428,-2.857143 -0.81266,-0.270887 -5.79738,0 -7.14286,0 -0.33947,0 -5.3941,-0.160093 -5.71429,0 -0.60233,0.301169 -0.88982,1.02451 -1.42857,1.428571 -1.37354,1.030158 -2.91217,1.826986 -4.28571,2.857143 -1.0775,0.808122 -1.65247,2.254805 -2.85714,2.857143 -1.75488,0.877439 -4.63846,0.705489 -5.71429,2.857143 -0.21296,0.425918 0,0.952381 0,1.428571 0,0.476191 0,0.952381 0,1.428572 0,2.380952 0,4.761902 0,7.142852 0,0.4762 0.21296,1.00266 0,1.42858 -0.30117,0.60234 -1.1274,0.82623 -1.42857,1.42857 -0.18782,0.37563 0,4.96725 0,5.71428 0,1.16785 -0.24135,9.27596 0,10 0.94018,2.82055 4.21567,0.67927 5.71428,1.42857 0.60234,0.30117 0.82624,1.12741 1.42858,1.42858 0.37563,0.18781 4.96725,0 5.71428,0 1.16785,0 9.27596,0.24134 10,0 0.17747,-0.0592 4.16317,-4.04063 4.28572,-4.28572 0.42591,-0.85183 -0.30117,-1.95363 0,-2.85714 0.33671,-1.01015 1.09185,-1.84699 1.42857,-2.85714 0.15058,-0.45176 -0.21296,-1.00266 0,-1.42858 0.85714,-1.71428 3.42857,-2.57142 4.28571,-4.28571 0.21296,-0.42592 0,-0.95238 0,-1.42857 0,-2.85714 0,-5.71429 0,-8.57143 0,-0.95238 0,-1.904761 0,-2.857142 0,-0.476191 0.21296,-1.002654 0,-1.428572 -0.59624,-1.192489 -3.08865,-2.278382 -2.85714,-2.857142 0.88426,-2.210659 2.85714,-3.809524 4.28571,-5.714286 z"
       id="path3779"
       inkscape:connector-curvature="0" />
    <path
       style="fill:none;stroke:#000000;stroke-width:1px;stroke-linecap:butt;stroke-linejoin:miter;stroke-opacity:1"
       d="m 165.02103,173.19902 c 0,-7.14286 0,-14.28572 0,-21.42858 0,-2.85714 0.35438,-5.73635 0,-8.57143 -0.30117,-2.40935 -0.95238,-4.7619 -1.42857,-7.14285 3.80952,0.47619 7.5894,1.42857 11.42857,1.42857 5.18922,-1.72974 2.77987,-1.42857 7.14285,-1.42857 3.80953,0 7.61905,0 11.42858,0 1.42857,0 2.85714,0 4.28571,0 0.95238,0 1.95364,0.30117 2.85714,0 2.02031,-0.67344 3.66664,-2.2721 5.71429,-2.85715 1.3736,-0.39245 2.85714,0 4.28571,0 0.95238,0 1.90476,0 2.85715,0 4.7619,0 9.52381,0 14.28571,0 1.34548,0 6.3302,0.27089 7.14286,0 0.63887,-0.21295 0.82623,-1.1274 1.42857,-1.42857 0.42592,-0.21296 0.95238,0 1.42857,0 0.47619,0 0.95238,0 1.42857,0 0.56473,0 6.53274,-0.30506 7.14286,0 0.60234,0.30117 0.86824,1.05502 1.42857,1.42857 0.88596,0.59065 2.10422,0.67565 2.85714,1.42858 0.33672,0.33671 -0.21296,1.00265 0,1.42857 0.30117,0.60234 1.21562,0.78969 1.42857,1.42857 0.26252,0.78754 0,7.35908 0,8.57143 0,7.14286 0,14.28571 0,21.42857 0,5.05735 -0.536,6.51714 1.42858,11.42857 0.39545,0.98864 0.83793,1.97118 1.42857,2.85714 0.46242,0.69363 2.85714,2.58156 2.85714,2.85715 0,0.67343 -0.95238,0.95238 -1.42857,1.42857 -1.90476,-1.90476 -3.47296,-4.22007 -5.71429,-5.71429 -1.02943,-0.68628 -5.63976,0.50103 -7.14285,0 -1.01016,-0.33672 -1.84699,-1.09185 -2.85715,-1.42857 -0.80599,-0.26867 -3.34699,0 -4.28571,0 -3.33333,0 -6.66667,0 -10,0 -2.20643,0 -5.12341,0.33658 -7.14286,0 -1.48536,-0.24756 -2.80035,-1.18101 -4.28571,-1.42857 -1.40914,-0.23486 -2.85715,0 -4.28572,0 -1.42857,0 -2.85714,0 -4.28571,0 -6.66667,0 -13.33333,0 -20,0 -0.63518,0 -7.63611,0.28059 -8.57143,0 -4.32702,-1.2981 -8.57143,-2.85714 -12.85714,-4.28571 z"
       id="path3781"
       inkscape:connector-curvature="0" />
    <path
       style="fill:none;stroke:#000000;stroke-width:1px;stroke-linecap:butt;stroke-linejoin:miter;stroke-opacity:1"
       d="m 270,158.07647 c 1.90476,-1.42857 3.80952,-2.85714 5.71429,-4.28572 0.47619,0 0.97681,0.15059 1.42857,0 1.01015,-0.33671 1.82414,-1.17032 2.85714,-1.42857 0.92395,-0.23098 1.95364,0.30117 2.85714,0 0.63888,-0.21296 0.95238,-0.95238 1.42857,-1.42857 0.95239,-0.95238 1.77965,-2.04902 2.85715,-2.85714 0.85183,-0.63888 1.97118,-0.83793 2.85714,-1.42857 0.56033,-0.37356 0.95238,-1.90477 1.42857,-1.42858 0.47619,0.4762 -1.90476,1.90477 -1.42857,1.42858 0.95238,-0.95238 1.55049,-2.53048 2.85714,-2.85715 3.28306,-0.82076 2.85715,1.46495 2.85715,2.85715 0,5.23809 0,10.47619 0,15.71428 0,0.82314 -0.26034,6.62218 0,7.14286 0.60233,1.20468 2.43122,1.57939 2.85714,2.85714 0.30117,0.90351 0,1.90476 0,2.85715 0,1.96017 0.74997,4.62501 -1.42857,5.71428 -0.42592,0.21296 -0.95238,0 -1.42857,0 -0.95239,0 -1.95364,0.30117 -2.85715,0 -0.63887,-0.21296 -0.82623,-1.1274 -1.42857,-1.42857 -0.42592,-0.21296 -1.00265,0.21296 -1.42857,0 -1.71429,-0.85714 -2.57143,-3.42857 -4.28571,-4.28571 -0.42592,-0.21296 -0.97682,0.15058 -1.42858,0 -5.17898,-1.72633 -1.0167,-0.67781 -4.28571,-2.85715 -0.88596,-0.59064 -1.97118,-0.83793 -2.85714,-1.42857 -1.30045,-0.86697 -3.01952,-3.65261 -4.28572,-4.28571 -1.14285,-0.57143 -3.14285,0.57143 -4.28571,0 -0.60234,-0.30117 -0.95238,-0.95238 -1.42857,-1.42857"
       id="path3783"
       inkscape:connector-curvature="0" />
    <path
       style="fill:none;stroke:#000000;stroke-width:1px;stroke-linecap:butt;stroke-linejoin:miter;stroke-opacity:1"
       d="m 387.14286,62.362182 c 0,38.571428 0,77.142858 0,115.714288 2.38095,0.47619 4.74779,1.02939 7.14285,1.42857 0.46972,0.0783 0.95239,0 1.42858,0 2.85714,0 5.71428,0 8.57142,0 5.71429,0 11.42858,0 17.14286,0 9.52381,0 19.04762,0 28.57143,0 4.28571,0 8.57143,0 12.85714,0 0.47619,0 0.95238,0 1.42857,0 0.95239,0 2.85715,-0.95238 2.85715,0 0,0.95238 -3.80953,0 -2.85715,0 1.42858,0 2.85715,0 4.28572,0 4.28571,0 8.57143,0 12.85714,0 0.64337,0 3.85095,-0.21738 4.28572,0 0.60233,0.30117 0.75513,1.42857 1.42857,1.42857 0.47619,0 0,-0.95238 0,-1.42857 0,-0.95238 0,-1.90476 0,-2.85714 0,-3.80953 0,-7.61905 0,-11.42857 0,-8.57143 0,-17.14286 0,-25.71429 0,-15.2381 0,-30.47619 0,-45.714286 0,-4.761905 0,-9.52381 0,-14.285715 0,-0.960705 0.21327,-9.146915 0,-10 -0.16333,-0.653328 -1.1274,-0.826233 -1.42857,-1.428571 -0.1601,-0.320186 0,-5.374814 0,-5.714286 0,-1.345482 0.27088,-6.330197 0,-7.142857 -0.42592,-1.277753 -2.11004,-1.736479 -2.85715,-2.857143 -0.59064,-0.885962 -0.67565,-2.10422 -1.42857,-2.857143 -0.33672,-0.336717 -0.95238,0 -1.42857,0 -1.42857,0 -2.85714,0 -4.28571,0 -3.80953,0 -7.61905,0 -11.42858,0 -16.66666,0 -33.33333,0 -50,0 -5.23809,0 -10.47619,0 -15.71428,0 -0.76316,0 -6.734,-0.20443 -7.14286,0 -0.60234,0.30117 -0.95238,0.952381 -1.42857,1.428572 -3.96869,3.968687 -2.85714,5.284723 -2.85714,11.428571 z"
       id="path3785"
       inkscape:connector-curvature="0" />
    <path
       style="fill:none;stroke:#000000;stroke-width:1px;stroke-linecap:butt;stroke-linejoin:miter;stroke-opacity:1"
       d="m 534.28571,183.79075 c 3.80953,0 7.61905,0 11.42858,0 0.47619,0 0.96659,0.1155 1.42857,0 1.46088,-0.36522 2.80911,-1.13325 4.28571,-1.42857 0.93389,-0.18678 1.90476,0 2.85714,0 3.33334,0 6.66667,0 10,0 2.38096,0 4.76191,0 7.14286,0 0.95238,0 1.92326,0.18678 2.85714,0 1.47661,-0.29532 2.80911,-1.13325 4.28572,-1.42857 0.93389,-0.18678 1.90476,0 2.85714,0 0.47619,0 1.00266,0.21296 1.42857,0 1.53567,-0.76783 2.75005,-2.08931 4.28572,-2.85714 0.42592,-0.21296 0.95238,0 1.42857,0 1.42857,0 2.85714,0 4.28571,0 2.38096,0 4.76191,0 7.14286,0 7.61905,0 15.2381,0 22.85714,0 2.38096,0 4.76191,0 7.14286,0 0.95238,0 1.9332,-0.23099 2.85714,0 1.46089,0.36522 2.82483,1.06335 4.28572,1.42857 0.92394,0.23099 1.90476,0 2.85714,0 1.90476,0 3.80952,0 5.71429,0 1.42857,0 2.93045,0.45175 4.28571,0 3.18624,-1.06208 0.49211,-4.23795 0,-5.71429 -0.15058,-0.45175 0,-0.95238 0,-1.42857 0,-2.14538 0.3786,-5.24987 0,-7.14285 -0.20882,-1.04412 -1.09185,-1.847 -1.42857,-2.85715 -0.15059,-0.45175 0.11549,-0.9666 0,-1.42857 -0.36522,-1.46088 -1.13325,-2.80911 -1.42857,-4.28571 -0.11067,-0.55332 0.11748,-5.47932 0,-5.71429 -0.60234,-1.20468 -2.11004,-1.73648 -2.85715,-2.85714 -0.36095,-0.54144 0.25304,-6.13072 0,-7.14286 -0.25825,-1.033 -1.09185,-1.84699 -1.42857,-2.85714 -0.30117,-0.90351 0,-1.90476 0,-2.85715 0,-3.33333 0,-6.66666 0,-10 0,-0.93187 0.2814,-4.5887 0,-5.71428 -0.36522,-1.46089 -1.06335,-2.82483 -1.42857,-4.28572 -0.11549,-0.46197 0.21296,-1.00265 0,-1.42857 -0.30117,-0.60234 -1.1274,-0.82623 -1.42857,-1.42857 -0.21296,-0.42592 0,-0.95238 0,-1.42857 0,-0.95238 0,-1.90476 0,-2.85714 0,-2.85715 0,-5.71429 0,-8.571431 0,-0.47619 0,-0.952381 0,-1.428571 0,-0.476191 0.21296,-1.002654 0,-1.428572 -0.76783,-1.535668 -2.08931,-2.750046 -2.85714,-4.285714 -0.31784,-0.635682 0.2178,-5.060876 0,-5.714286 -0.21296,-0.638876 -1.1274,-0.826232 -1.42857,-1.428571 -0.45452,-0.909031 0.41169,-5.907781 0,-7.142857 -0.33672,-1.010153 -1.17032,-1.824141 -1.42858,-2.857143 -0.58406,-2.336268 1.08644,-3.028212 -1.42857,-4.285714 -0.42591,-0.212959 -0.97681,0.150584 -1.42857,0 -1.01015,-0.336718 -1.84699,-1.091854 -2.85714,-1.428572 -0.45176,-0.150584 -0.95238,0 -1.42857,0 -1.42857,0 -2.85715,0 -4.28572,0 -0.47619,0 -0.9666,0.115493 -1.42857,0 -1.46088,-0.365221 -2.80911,-1.13325 -4.28571,-1.428571 -2.63447,-0.526894 -7.38151,0.523699 -10,0 -1.04412,-0.208824 -1.82414,-1.170321 -2.85715,-1.428572 -0.96677,-0.241694 -9.0807,0 -10,0 -0.95238,0 -1.97287,0.353706 -2.85714,0 -1.59413,-0.637651 -2.75004,-2.089308 -4.28571,-2.857142 -0.42592,-0.212959 -0.95238,0 -1.42857,0 -0.47619,0 -0.95238,0 -1.42858,0 -1.42857,0 -2.85714,0 -4.28571,0 -5.23809,0 -10.47619,0 -15.71429,0 -2.85714,0 -5.71428,0 -8.57142,0 -1.42858,0 -2.93046,-0.451754 -4.28572,0 -0.63887,0.212958 -0.95238,0.95238 -1.42857,1.428571 -0.47619,0.47619 -0.95238,0.952381 -1.42857,1.428571 -0.47619,0.476191 -1.1274,0.826233 -1.42857,1.428572 -0.21296,0.425918 0,0.952381 0,1.428571 -0.47619,0.952381 -0.7897,2.005308 -1.42857,2.857143 -0.80813,1.077496 -2.04902,1.779647 -2.85715,2.857143 -3.3219,4.429198 -0.67708,1.27978 -1.42857,4.285714 -0.36522,1.460886 -0.86931,2.887571 -1.42857,4.285715 -0.39545,0.988636 -1.09185,1.84699 -1.42857,2.857142 -0.15059,0.451754 0.21296,1.002654 0,1.428572 -0.76784,1.535668 -2.08931,2.750046 -2.85714,4.285714 -0.21296,0.425918 0.15058,0.976818 0,1.428572 -4.04692,8.093836 0.53239,-2.129589 -1.42858,5.714285 -0.25825,1.033001 -1.17032,1.824141 -1.42857,2.857141 -0.23098,0.92395 0.23099,1.9332 0,2.85714 -0.25825,1.03301 -1.17032,1.82415 -1.42857,2.85715 -0.23098,0.92394 0,1.90476 0,2.85714 0,2.38095 0,4.76191 0,7.14286 0,1.42857 0,2.85714 0,4.28571 0,0.47619 0.21296,1.00266 0,1.42857 -1.63008,3.26016 -3.2166,3.93552 -4.28571,7.14286 -0.15059,0.45175 0,0.95238 0,1.42857 0,1.42857 0,2.85714 0,4.28572 0,0.95238 0.18677,1.92325 0,2.85714 -0.29532,1.4766 -1.06335,2.82483 -1.42857,4.28571 -0.1155,0.46198 0,0.95238 0,1.42857 0,2.16666 0.31967,9.51054 0,11.42858 -0.24756,1.48535 -1.18102,2.80035 -1.42858,4.28571 -0.23485,1.40913 0.45176,2.93045 0,4.28572 -0.54294,1.62882 -2.0893,2.75004 -2.85714,4.28571 -0.21296,0.42592 0.21296,1.00265 0,1.42857 -0.30117,0.60234 -1.1274,0.82623 -1.42857,1.42857 -0.21296,0.42592 0.15058,0.97682 0,1.42857 -0.33672,1.01016 -1.09185,1.84699 -1.42857,2.85715 -0.15059,0.45175 0.15058,0.97681 0,1.42857 -0.33672,1.01015 -1.17032,1.82414 -1.42857,2.85714 -0.34648,1.38592 0,2.85714 0,4.28572"
       id="path3787"
       inkscape:connector-curvature="0" />
    <path
       style="fill:none;stroke:#000000;stroke-width:1px;stroke-linecap:butt;stroke-linejoin:miter;stroke-opacity:1"
       d="m 537.14286,60.933611 c 3.6816,1.944517 6.2214,-4.539271 8.57143,-5.714286 0.42591,-0.212959 0.95238,0 1.42857,0 0.95238,0 1.9332,0.230986 2.85714,0 3.45436,-0.863591 2.10746,-1.223449 4.28571,-2.857143 1.37355,-1.030157 2.75005,-2.089309 4.28572,-2.857143 0.42592,-0.212959 0.97682,0.150585 1.42857,0 1.01015,-0.336717 1.84699,-1.091854 2.85714,-1.428571 0.45176,-0.150585 0.96163,0.09339 1.42857,0 1.92526,-0.385051 3.78903,-1.04352 5.71429,-1.428572 0.46694,-0.09339 0.96163,0.09339 1.42857,0 1.92526,-0.385051 3.77064,-1.150907 5.71429,-1.428571 1.41421,-0.202031 2.91211,0.392459 4.28571,0 2.04765,-0.585043 3.76824,-1.992235 5.71429,-2.857143 2.34334,-1.041487 4.71009,-2.04622 7.14285,-2.857143 0.45176,-0.150584 0.9666,0.115493 1.42858,0 1.46088,-0.365221 2.80911,-1.13325 4.28571,-1.428571 0.93389,-0.186777 1.92326,0.186777 2.85714,0 1.47661,-0.295321 2.80911,-1.133251 4.28572,-1.428572 0.93388,-0.186777 2.0053,0.425918 2.85714,0 1.20468,-0.602338 1.65247,-2.254804 2.85714,-2.857142 0.85184,-0.425918 1.9332,0.230986 2.85715,0 1.033,-0.258251 1.82414,-1.170321 2.85714,-1.428572 0.92394,-0.230986 1.90476,0 2.85714,0 0.95238,-0.47619 1.84699,-1.091854 2.85714,-1.428571 0.45176,-0.150585 0.95239,0 1.42858,0 0.95238,0 1.90476,0 2.85714,0 3.80952,0 7.61905,0 11.42857,0 10.95238,0 21.90476,0 32.85714,0 2.38096,0 4.76191,0 7.14286,0 0.47619,0 0.95238,0 1.42857,0 0.47619,0 1.03236,-0.264143 1.42857,0 1.12067,0.747109 1.65247,2.254804 2.85715,2.857143 1.27775,0.638876 2.85714,0 4.28571,0 10.13246,0 0.83684,-1.010153 5.71429,1.428571 1.14285,0.571429 3.14285,-0.571429 4.28571,0 0.60234,0.301169 1.90476,0.952381 1.42857,1.428571 -0.47619,0.476191 -0.95238,-1.904762 -1.42857,-1.428571 -0.67343,0.673435 0.30117,1.953635 0,2.857143 -0.21296,0.638876 -0.95238,0.952381 -1.42857,1.428571 -0.47619,0.476191 -0.86824,1.055017 -1.42857,1.428572 -0.88596,0.590641 -1.90476,0.952381 -2.85715,1.428571 -0.95238,0.476191 -1.82414,1.170321 -2.85714,1.428572 -0.92394,0.230986 -1.95363,-0.30117 -2.85714,0 -0.63888,0.212958 -0.7897,1.215612 -1.42857,1.428571 -0.90351,0.301169 -1.95364,-0.301169 -2.85715,0 -1.27775,0.425918 -1.73647,2.110034 -2.85714,2.857143 -0.71942,3.147377 -2.93884,0.755136 -4.28571,1.428571 -0.60234,0.30117 -0.82624,1.127402 -1.42857,1.428572 -0.85184,0.425917 -1.95364,-0.30117 -2.85715,0 -1.01015,0.336717 -1.82414,1.170321 -2.85714,1.428571 -0.92394,0.230986 -2.00531,-0.425918 -2.85714,0 -1.20468,0.602339 -1.90476,1.904762 -2.85715,2.857143 -0.47619,0.47619 -0.78969,1.215613 -1.42857,1.428571 -0.9035,0.30117 -1.95363,-0.301169 -2.85714,0 -0.63888,0.212959 -0.82623,1.127403 -1.42857,1.428572 -0.42592,0.212959 -1.00265,-0.212959 -1.42857,0 -0.60234,0.301169 -0.77525,1.265239 -1.42857,1.428571 -1.38592,0.34648 -2.95932,-0.530558 -4.28572,0 -1.25054,0.500215 -1.77965,2.049021 -2.85714,2.857143 -1.70367,1.277753 -3.94236,1.67586 -5.71429,2.857143 -0.56033,0.373554 -0.95238,0.952381 -1.42857,1.428571 -1.90476,0.952381 -3.88818,1.761479 -5.71428,2.857143 -0.57747,0.34648 -0.82624,1.127402 -1.42858,1.428572 -10.8586,5.4293 -0.84419,0.211049 -5.71428,1.428571 -1.46089,0.365222 -2.88757,0.869314 -4.28572,1.428572 -0.98863,0.395454 -1.97118,0.837929 -2.85714,1.428571 -0.56033,0.373555 -0.82623,1.127402 -1.42857,1.428571 -3.15831,1.579156 -3.27924,1.428572 -5.71429,1.428572"
       id="path3789"
       inkscape:connector-curvature="0" />
    <path
       style="fill:none;stroke:#000000;stroke-width:1px;stroke-linecap:butt;stroke-linejoin:miter;stroke-opacity:1"
       d="m 702.85714,43.790754 c 0.47619,1.904761 1.15091,3.770635 1.42857,5.714285 0.20204,1.414214 0,2.857143 0,4.285715 0,2.380952 0,4.761904 0,7.142857 0,7.619047 0,15.238095 0,22.857143 0,20.952376 0,41.904766 0,62.857146 0,5.45226 -0.67343,0.41842 2.85715,5.71428 0.26414,0.39622 0,0.95238 0,1.42857 0,0.95238 0,1.90477 0,2.85715 0,3.33333 0,6.66666 0,10 0,0.47619 0.21296,1.00265 0,1.42857 -1.40516,2.81031 -1.00979,0.68963 -2.85715,1.42857 -1.97727,0.79091 -3.66663,2.2721 -5.71428,2.85714 -1.37361,0.39246 -2.88489,-0.28016 -4.28572,0 -1.04411,0.20883 -1.81302,1.21975 -2.85714,1.42857 -1.40083,0.28017 -2.85714,0 -4.28571,0 -0.47619,0 -1.00266,-0.21296 -1.42857,0 -1.20468,0.60234 -1.57939,2.43123 -2.85715,2.85715 -0.9035,0.30117 -1.93319,-0.23099 -2.85714,0 -2.58563,-0.86104 -2.65689,2.3142 -4.28571,2.85714 -9.0125,3.00416 0.69487,-1.6602 -4.28572,0 -1.01015,0.33672 -1.82414,1.17032 -2.85714,1.42857 -0.92395,0.23099 -1.95364,-0.30117 -2.85714,0 -0.63888,0.21296 -0.82624,1.1274 -1.42858,1.42857 -0.42591,0.21296 -1.00265,-0.21296 -1.42857,0 -0.60234,0.30117 -0.78969,1.21561 -1.42857,1.42857 -0.90351,0.30117 -1.95363,-0.30117 -2.85714,0 -2.31143,0.77048 -0.4454,2.85715 -4.28572,2.85715"
       id="path3791"
       inkscape:connector-curvature="0" />
    <path
       style="fill:none;stroke:#000000;stroke-width:1px;stroke-linecap:butt;stroke-linejoin:miter;stroke-opacity:1"
       d="m 405.71429,69.505039 c 1.90476,0.476191 6.19047,-0.47619 5.71428,1.428572 -0.47619,1.904762 -5.71428,-3.391955 -5.71428,-1.428572 0,3.049107 4.02294,4.605847 5.71428,7.142857 0.26414,0.396215 0,0.952381 0,1.428572 0,0.47619 0,0.952381 0,1.428571 0,2.857143 0,5.714286 0,8.571429 0,3.809524 0,7.619047 0,11.428571 0,1.638091 0.36996,4.234441 0,5.714281 -0.25825,1.03301 -1.21975,1.81303 -1.42857,2.85715 -0.28633,1.43166 0,6.71121 0,8.57143 0,0.95238 0,1.90476 0,2.85714 0,0.47619 0.21296,1.00265 0,1.42857 -0.30117,0.60234 -1.1274,0.82623 -1.42857,1.42857 -0.21296,0.42592 0,0.95238 0,1.42857 0,0.95238 0,1.90477 0,2.85715 0,1.40337 0.31495,7.62657 0,8.57142 -0.33672,1.01016 -1.17032,1.82415 -1.42857,2.85715 -0.36996,1.47984 0,4.07619 0,5.71428 0,0.76317 0.20443,6.734 0,7.14286 -0.60234,1.20468 -2.25481,1.65247 -2.85715,2.85714 -0.21248,0.42497 0,7.97049 0,8.57143 0,0.47619 -0.21295,1.00266 0,1.42857 0.30117,0.60234 0.75514,1.42858 1.42858,1.42858 1.06479,0 1.84699,-1.09186 2.85714,-1.42858 0.77315,-0.25771 5.22761,0 5.71428,0 1.62479,0 5.50912,0.32675 7.14286,0 1.92526,-0.38505 3.78903,-1.04352 5.71429,-1.42857 0.46694,-0.0934 0.95238,0 1.42857,0 2.38095,0 4.7619,0 7.14286,0 6.19047,0 12.38095,0 18.57142,0 2.05092,0 5.44555,-0.42433 7.14286,0 0.65333,0.16333 0.82623,1.1274 1.42857,1.42857 0.4237,0.21185 7.18967,0 8.57143,0 0.55789,0 4.28572,0.67344 4.28572,-1.42857 0,-0.67343 -1.05502,-0.86824 -1.42858,-1.42857 -0.59064,-0.88596 -1.09185,-1.84699 -1.42857,-2.85714 -0.15058,-0.45176 0,-0.95238 0,-1.42857 0,-2.38096 0,-4.76191 0,-7.14286 0,-0.95238 0.23099,-1.9332 0,-2.85714 -0.25825,-1.03301 -1.17032,-1.82414 -1.42857,-2.85715 -0.23098,-0.92394 0,-1.90476 0,-2.85714 0,-1.42857 0,-2.85714 0,-4.28571 0,-0.47619 0.21296,-1.00266 0,-1.42858 -0.76783,-1.53566 -2.08931,-2.75004 -2.85714,-4.28571 -0.18782,-0.37563 0,-4.96726 0,-5.71429 0,-4.28571 0,-8.57142 0,-12.85714 0,-2.85714 0,-5.71428 0,-8.57143 0,-0.48667 0.25772,-4.94113 0,-5.714282 -0.33672,-1.010153 -1.09186,-1.84699 -1.42857,-2.857143 -0.27728,-0.831828 0,-7.588471 0,-8.571429 0,-3.961595 0.21296,2.280407 -1.42857,-4.285714 -0.31886,-1.275404 0,-5.489247 0,-7.142857 0,-0.952381 0.30117,-1.953635 0,-2.857143 -0.21296,-0.638876 -0.82624,-1.127402 -1.42858,-1.428571 -0.42591,-0.212959 -0.95238,0 -1.42857,0 -0.47619,0 -1.00265,-0.212959 -1.42857,0 -0.60234,0.301169 -0.77524,1.265239 -1.42857,1.428571 -1.38592,0.34648 -2.85714,0 -4.28571,0 -0.95238,0 -1.90477,0 -2.85715,0 -9.04762,0 -18.09524,0 -27.14285,0 -2.85715,0 -5.71429,0 -8.57143,0 -1.42857,0 -2.91211,0.392459 -4.28572,0 -2.46569,-0.704485 -4.7619,-1.904762 -7.14285,-2.857143 z"
       id="path3793"
       inkscape:connector-curvature="0" />
    <path
       style="fill:none;stroke:#000000;stroke-width:1px;stroke-linecap:butt;stroke-linejoin:miter;stroke-opacity:1"
       d="m 108.57143,838.07647 c 0.95238,2.38095 2.04622,4.71009 2.85714,7.14286 0.15059,0.45175 0,0.95238 0,1.42857 0,1.42857 0,2.85714 0,4.28571 0,2.38095 0,4.76191 0,7.14286 0,9.52381 0,19.04762 0,28.57143 0,3.33333 0,6.66666 0,10 0,0.98646 0.21717,5.27995 0,5.71428 -0.30117,0.60234 -0.95238,0.95238 -1.42857,1.42857 0,1.90476 0,3.80953 0,5.71429 -0.47619,0 -1.42857,-0.47619 -1.42857,0 0,0.47619 0.95238,0 1.42857,0 0.95238,0 1.90476,0 2.85714,0 3.33334,0 6.66667,0 10,0 20,0 40,0 60,0 2.85715,0 5.71429,0 8.57143,0 1.42857,0 2.85714,0 4.28572,0 0.47619,0 0.98644,0.17685 1.42857,0 1.97727,-0.79091 3.69398,-2.18371 5.71428,-2.85714 0.90351,-0.30117 1.90476,0 2.85715,0 1.42857,0 2.85714,0 4.28571,0 3.43379,0 -0.60234,0.15058 5.71429,-1.42857 1.33199,-0.333 3.18167,0.64907 2.85714,0 -0.60234,-1.20468 -2.11004,-1.73648 -2.85714,-2.85715 -0.52829,-0.79243 0.30117,-1.95363 0,-2.85714 -0.33672,-1.01015 -1.09186,-1.84699 -1.42858,-2.85714 -0.30116,-0.90351 0,-1.90477 0,-2.85715 0,-3.33333 0,-6.66666 0,-10 0,-9.52381 0,-19.04762 0,-28.57142 0,-3.80953 0,-7.61905 0,-11.42858 0,-1.42857 0.28017,-2.88488 0,-4.28571 -0.20882,-1.04412 -0.83793,-1.97118 -1.42857,-2.85714 -1.62581,-2.43873 -2.47957,-1.42857 -5.71428,-1.42857 -16.19048,0 -32.38096,0 -48.57143,0 -1.42857,0 -2.85714,0 -4.28572,0 -0.95238,0 -1.92325,-0.18678 -2.85714,0 -1.4766,0.29532 -2.80035,1.18101 -4.28571,1.42857 -1.40914,0.23485 -2.87658,-0.23486 -4.28572,0 -1.48535,0.24756 -2.80035,1.18101 -4.28571,1.42857 -0.99934,0.16655 -9.24105,-0.37948 -10,0 -1.20468,0.60234 -1.65247,2.2548 -2.85714,2.85714 -0.85184,0.42592 -1.90477,0 -2.85715,0 -6.54067,0 -6.79568,0.19493 -14.28571,-2.85714 z"
       id="path3795"
       inkscape:connector-curvature="0" />
    <path
       style="fill:none;stroke:#000000;stroke-width:1px;stroke-linecap:butt;stroke-linejoin:miter;stroke-opacity:1"
       d="m 138.57143,863.79075 c 0.95238,1.90477 2.18371,3.69398 2.85714,5.71429 0.45176,1.35526 0,2.85714 0,4.28571 0,3.33334 0,6.66667 0,10 0,2.38096 0,4.76191 0,7.14286 0,0.47619 0.47619,1.42857 0,1.42857 -0.47619,0 0,-0.95238 0,-1.42857 0,-0.95238 0,-1.90476 0,-2.85714 0,-2.38095 0,-4.76191 0,-7.14286"
       id="path3797"
       inkscape:connector-curvature="0" />
    <path
       style="fill:none;stroke:#000000;stroke-width:1px;stroke-linecap:butt;stroke-linejoin:miter;stroke-opacity:1"
       d="m 145.71429,862.36218 c 6.91896,3.45948 4.20844,1.3513 8.57142,5.71429 0.47619,0.47619 1.12741,0.82623 1.42858,1.42857 0.21295,0.42592 -0.26415,1.03236 0,1.42857 1.06485,1.59729 4.15938,4.15938 5.71428,5.71429 0.47619,0.47619 1.90476,0.95238 1.42857,1.42857 -0.67343,0.67343 -1.90476,0 -2.85714,0 -3.33333,0 -6.66667,0 -10,0 -1.42857,0 -2.93045,-0.45176 -4.28571,0 -0.63888,0.21296 -0.86824,1.05502 -1.42858,1.42857 -0.88596,0.59064 -1.97118,0.83793 -2.85714,1.42857 -0.56033,0.37356 -0.82623,1.1274 -1.42857,1.42857 -0.85184,0.42592 -2.00531,-0.42592 -2.85714,0 -0.60234,0.30117 -0.95238,0.95238 -1.42857,1.42857 -1.78873,1.78873 -3.04774,2.85715 -5.71429,2.85715"
       id="path3799"
       inkscape:connector-curvature="0" />
    <path
       style="fill:none;stroke:#000000;stroke-width:1px;stroke-linecap:butt;stroke-linejoin:miter;stroke-opacity:1"
       d="m 374.28571,905.21933 c 0,-40 0,-80 0,-120 2.85714,-0.95238 5.57816,-2.52456 8.57143,-2.85715 1.49664,-0.16629 2.80036,1.18101 4.28572,1.42857 1.40913,0.23486 2.8715,-0.20203 4.28571,0 1.94365,0.27767 3.76607,1.18505 5.71429,1.42858 1.89005,0.23625 3.80952,0 5.71428,0 7.14286,0 14.28572,0 21.42857,0 14.76191,0 29.52381,0 44.28572,0 2.85714,0 5.71428,0 8.57143,0 1.71033,0 4.47796,-0.42592 5.71428,1.42857 0.52829,0.79243 0,1.90476 0,2.85714 0,3.33333 0,6.66667 0,10 0,6.19048 0,12.38095 0,18.57143 0,2.38095 0.39143,4.7943 0,7.14286 -0.56992,3.41955 -1.90476,6.66666 -2.85714,10 -1.78328,6.24148 -4.99245,16.72153 -5.71429,22.85714 0,32.05415 1.04656,-7.84918 -2.85714,21.42857 -0.50348,3.77611 0,7.61905 0,11.42857 0,7.562 0.53875,14.05112 -1.42857,21.42857 -4.95452,18.57946 -4.28571,4.84718 -4.28571,17.14286 0,1.90476 0,3.80952 0,5.71429 0,0.95238 -0.30117,1.95363 0,2.85714 0.21295,0.63887 0.75513,1.42857 1.42857,1.42857 0.47619,0 0.21296,-1.00265 0,-1.42857 -0.30117,-0.60234 -0.95238,-0.95238 -1.42857,-1.42857 -0.47619,-0.47619 -0.95238,-0.95238 -1.42858,-1.42857 -0.47619,-0.4762 -1.05501,-0.86824 -1.42857,-1.42858 -0.59064,-0.88596 -0.83793,-1.97118 -1.42857,-2.85714 -0.37355,-0.56033 -0.95238,-0.95238 -1.42857,-1.42857 -0.47619,-0.47619 -0.86824,-1.05502 -1.42857,-1.42857 -6.23935,-4.15957 0.47088,0.63315 -5.71429,-1.42857 -0.63887,-0.21296 -0.78969,-1.21562 -1.42857,-1.42857 -0.90351,-0.30117 -2.00531,0.42591 -2.85714,0 -1.20468,-0.60234 -1.73648,-2.11004 -2.85714,-2.85715 -0.39622,-0.26414 -0.97682,0.15059 -1.42858,0 -1.01015,-0.33671 -1.82414,-1.17032 -2.85714,-1.42857 -0.92394,-0.23099 -1.95363,0.30117 -2.85714,0 -0.63888,-0.21296 -0.7897,-1.21561 -1.42857,-1.42857 -6.53478,-2.17826 1.48026,3.7453 -7.14286,-1.42857 -1.15493,-0.69296 -1.65247,-2.25481 -2.85714,-2.85714 -0.85184,-0.42592 -1.9332,0.23098 -2.85715,0 -1.033,-0.25826 -1.84699,-1.09186 -2.85714,-1.42858 -0.92386,-0.30795 -5.583,0 -7.14286,0 -4.7619,0 -9.52381,0 -14.28571,0"
       id="path3801"
       inkscape:connector-curvature="0" />
    <path
       style="fill:none;stroke:#000000;stroke-width:1px;stroke-linecap:butt;stroke-linejoin:miter;stroke-opacity:1"
       d="m 377.14286,848.07647 c 1.90476,-0.47619 3.77063,-1.15091 5.71428,-1.42857 2.01502,-0.28786 7.92471,0 10,0 4.76191,0 9.52381,0 14.28572,0 4.7619,0 9.52381,0 14.28571,0 1.65361,0 5.86745,-0.31885 7.14286,0 1.033,0.25825 1.84699,1.09185 2.85714,1.42857 0.45176,0.15058 0.95238,0 1.42857,0 3.33334,0 6.66667,0 10,0 1.25951,0 3.06847,-0.30431 4.28572,0 14.43373,3.60843 -1.0317,-0.51585 5.71428,2.85714 0.42592,0.21296 0.95238,0 1.42857,0 0.4762,0 0.95239,0 1.42858,0 2.85714,0 5.71428,0 8.57142,0"
       id="path3803"
       inkscape:connector-curvature="0" />
    <path
       style="fill:none;stroke:#000000;stroke-width:1px;stroke-linecap:butt;stroke-linejoin:miter;stroke-opacity:1"
       d="m 422.85714,785.21933 c 0.95238,2.85714 2.1267,5.64965 2.85715,8.57142 0.23098,0.92395 0,1.90477 0,2.85715 0,2.38095 0,4.7619 0,7.14285 0,9.52381 0,19.04762 0,28.57143 0,25.71429 0,51.42857 0,77.14286"
       id="path3805"
       inkscape:connector-curvature="0" />
    <path
       style="fill:none;stroke:#000000;stroke-width:1px;stroke-linecap:butt;stroke-linejoin:miter;stroke-opacity:1"
       d="m 535.71429,775.21933 c 17.14285,0 34.28571,0 51.42857,0 2.85714,0 5.71428,0 8.57143,0 0.95238,0 1.90476,0 2.85714,0 0.95238,0 1.9332,0.23098 2.85714,0 1.033,-0.25826 1.81303,-1.21975 2.85714,-1.42858 1.40083,-0.28016 2.85715,0 4.28572,0 0.47619,0 0.9666,0.1155 1.42857,0 1.46089,-0.36522 2.88757,-0.86931 4.28571,-1.42857 0.98864,-0.39545 1.80684,-1.25352 2.85715,-1.42857 1.87884,-0.31314 3.80952,0 5.71428,0 2.85715,0 5.71429,0 8.57143,0 0.95238,0 1.90476,0 2.85714,0 0.95239,0 1.95364,0.30117 2.85715,0 0.63887,-0.21296 0.82623,-1.1274 1.42857,-1.42857 0.42592,-0.21296 0.95238,0 1.42857,0 0.47619,0 0.95238,0 1.42857,0 0.95224,0 10.62908,0.2665 11.42857,0 1.01016,-0.33672 1.82414,-1.17032 2.85715,-1.42857 1.38591,-0.34648 2.85714,0 4.28571,0 3.33333,0 6.66667,0 10,0 9.52381,0 19.04762,0 28.57143,0 0.47619,2.85714 1.0693,5.69724 1.42857,8.57143 0.11813,0.94502 0,1.90476 0,2.85714 0,1.90476 0,3.80952 0,5.71429 0,6.66666 0,13.33333 0,20 0,18.57142 0,37.14285 0,55.71428 0,8.09524 0,16.19048 0,24.28572 0,2.38095 0,4.7619 0,7.14285 0,2.85715 0.2843,5.72847 0,8.57143 -0.19536,1.95364 -1.18504,3.76606 -1.42857,5.71429 -0.23626,1.89005 0.66881,3.9308 0,5.71428 -0.83601,2.22936 -3.44971,3.48493 -4.28572,5.71429 -0.6688,1.78348 0.26938,3.82867 0,5.71428 -0.21295,1.49072 -1.18101,2.80036 -1.42857,4.28572 -0.23485,1.40913 0,2.85714 0,4.28571 0,1.90476 0,3.80953 0,5.71429 0,5.71428 0,11.42857 0,17.14286 -2.85714,-0.95238 -5.71428,-1.90476 -8.57143,-2.85715 -1.42857,0 -2.9121,0.39246 -4.28571,0 -2.04765,-0.58504 -3.69398,-2.18371 -5.71429,-2.85714 -0.9035,-0.30117 -1.90476,0 -2.85714,0 -2.38095,0 -4.7619,0 -7.14286,0 -1.90476,0 -3.82423,0.23626 -5.71428,0 -19.08918,-2.38615 9.83845,-0.58758 -12.85714,-2.85714 -2.36914,-0.23692 -4.76191,0 -7.14286,0 -3.33333,0 -6.66667,0 -10,0 -11.42857,0 -22.85714,0 -34.28572,0 -6.66666,0 -13.33333,0 -20,0 -1.19162,0 -6.83832,-0.20303 -7.14285,0 -1.12067,0.74711 -1.65247,2.2548 -2.85715,2.85714 -0.85183,0.42592 -1.90476,0 -2.85714,0 -1.42857,0 -2.87658,-0.23486 -4.28571,0 -1.48536,0.24756 -2.82483,1.06335 -4.28572,1.42857 -0.46197,0.11549 -0.95238,0 -1.42857,0 -1.42857,0 -2.88488,-0.28016 -4.28571,0 -1.04412,0.20882 -1.80684,1.25352 -2.85715,1.42857 -1.87884,0.31314 -3.82423,-0.23625 -5.71428,0 -12.35252,1.54407 -2.25294,1.42857 -7.14286,1.42857 -3.34484,-5.08835 -0.5189,-11.68485 -1.42857,-17.14285 -0.49512,-2.97072 -2.2665,-5.61822 -2.85714,-8.57143 -0.18678,-0.93389 0,-1.90476 0,-2.85714 0,-1.90477 0.23625,-3.82424 0,-5.71429 -0.24353,-1.94822 -1.23321,-3.76065 -1.42857,-5.71429 -0.2843,-2.84296 0,-5.71428 0,-8.57142 0,-3.80953 0,-7.61905 0,-11.42858 0,-18.09523 0,-36.19047 0,-54.28571 0,-6.19048 0,-12.38095 0,-18.57143 0,-2.38095 0,-4.7619 0,-7.14286 0,-0.95238 0.23098,-1.93319 0,-2.85714 -0.36523,-1.46088 -1.06335,-2.82483 -1.42858,-4.28571 -0.11549,-0.46198 0,-0.95238 0,-1.42857 0,-1.65953 0.32377,-5.84779 0,-7.14286 -0.25825,-1.033 -1.09185,-1.84699 -1.42857,-2.85714 -0.26866,-0.806 0,-3.34699 0,-4.28572 0,-2.38095 0,-4.7619 0,-7.14286 0,-0.64627 -0.19035,-8.19071 0,-8.57142 0.30117,-0.60234 1.12741,-0.82624 1.42857,-1.42858 0.98526,-1.97051 -1.73007,-1.27781 1.42858,-2.85714 0.42591,-0.21296 0.95238,0 1.42857,0 4.5955,0 2.89728,0.0301 8.57143,4.28572 z"
       id="path3813"
       inkscape:connector-curvature="0" />
    <path
       style="fill:none;stroke:#000000;stroke-width:1px;stroke-linecap:butt;stroke-linejoin:miter;stroke-opacity:1"
       d="m 591.42857,782.36218 c 1.70497,4.63584 1.42857,8.11768 1.42857,12.85715 0,1.42857 0.34648,2.89979 0,4.28571 -0.5165,2.066 -2.06623,3.73701 -2.85714,5.71429 -0.55926,1.39814 -0.65382,2.99446 -1.42857,4.28571 -4.28572,7.14286 -1.42857,0 -4.28572,4.28571 -1.18128,1.77193 -1.57939,4.01062 -2.85714,5.71429 -8.74791,8.74791 1.80702,-2.40935 -4.28571,5.71429 -1.33374,1.77832 -5.51288,5.51287 -7.14286,7.14285 -0.47619,0.47619 -1.1274,0.82624 -1.42857,1.42857 -1.44054,2.88108 -0.98477,4.64637 -2.85714,7.14286 -1.21219,1.61625 -2.85715,2.85714 -4.28572,4.28572 -2.38095,2.38095 -4.7619,4.7619 -7.14286,7.14285 -1.90476,1.90476 -3.80952,3.80953 -5.71428,5.71429 -1.42857,1.42857 -2.66947,3.07353 -4.28572,4.28571 -0.51581,0.38686 -3.58728,-0.34921 -4.28571,0 -0.60234,0.30117 -0.82623,1.1274 -1.42857,1.42857 -0.42592,0.21296 -0.95238,0 -1.42857,0 -0.47619,0 -0.95238,0 -1.42857,0 -1.2095,0 -4.94628,-0.256 -5.71429,0 -0.63888,0.21296 -0.95238,0.95238 -1.42857,1.42858"
       id="path3815"
       inkscape:connector-curvature="0" />
    <path
       style="fill:none;stroke:#000000;stroke-width:1px;stroke-linecap:butt;stroke-linejoin:miter;stroke-opacity:1"
       d="m 540,870.93361 c -2.90436,5.47691 4.75007,4.25022 5.71429,7.14286 0.30117,0.90351 0,1.90476 0,2.85714 0,0.47619 -0.21296,1.00265 0,1.42857 0.30117,0.60234 1.1274,0.82624 1.42857,1.42857 0.21296,0.42592 0,0.95238 0,1.42858 0,0.95238 0,1.90476 0,2.85714 0,3.80952 0,7.61905 0,11.42857 0,12.85714 0,25.71429 0,38.57143"
       id="path3817"
       inkscape:connector-curvature="0" />
    <path
       style="fill:none;stroke:#000000;stroke-width:1px;stroke-linecap:butt;stroke-linejoin:miter;stroke-opacity:1"
       d="m 631.42857,775.21933 c 0,8.09523 0,16.19047 0,24.28571 0,2.38095 -0.46694,4.80814 0,7.14286 0.20883,1.04411 1.03312,1.8685 1.42857,2.85714 0.55926,1.39814 1.13325,2.80911 1.42857,4.28571 0.87131,4.35652 -1.67882,1.96387 1.42858,7.14286 0.69295,1.15493 1.90476,1.90476 2.85714,2.85714 1.57517,1.57518 7.80146,7.28815 8.57143,8.57143 0.48999,0.81666 -0.23099,1.9332 0,2.85715 0.25825,1.033 1.03311,1.8685 1.42857,2.85714 0.55926,1.39814 0.65382,2.99446 1.42857,4.28571 0.69296,1.15493 2.01576,1.80542 2.85714,2.85715 8.23044,10.28804 -4.13631,-2.32092 8.57143,8.57142 2.55655,2.19133 4.44912,5.12256 7.14286,7.14286 3.85465,2.89099 2.34107,-0.0239 7.14286,2.85714 7.14285,4.28572 0,1.42858 4.28571,4.28572 8.67295,5.78197 -4.47305,-4.1124 7.14286,2.85714 1.15493,0.69296 1.73648,2.11003 2.85714,2.85714 0.39621,0.26415 1.00265,-0.21295 1.42857,0 0.60234,0.30117 0.82623,1.12741 1.42857,1.42858 0.42592,0.21295 1.00266,-0.21296 1.42857,0 0.60234,0.30116 0.82624,1.1274 1.42858,1.42857 0.42591,0.21296 0.95238,0 1.42857,0 0.47619,0 0.95238,0 1.42857,0"
       id="path3819"
       inkscape:connector-curvature="0" />
    <path
       style="fill:none;stroke:#000000;stroke-width:1px;stroke-linecap:butt;stroke-linejoin:miter;stroke-opacity:1"
       d="m 672.85714,869.50504 c 0,3.33333 0,6.66667 0,10 0,0.95238 0.35371,1.97288 0,2.85714 -0.63765,1.59413 -2.08931,2.75005 -2.85714,4.28572 -0.21296,0.42591 0,0.95238 0,1.42857 0,0.95238 0,1.90476 0,2.85714 0,3.33333 0,6.66667 0,10 0,12.38095 0,24.76191 0,37.14286 0,2.46972 -0.14931,3.34747 1.42857,5.71428 0.37356,0.56034 1.42857,0.75514 1.42857,1.42858 0,0.67343 -0.95238,0.95238 -1.42857,1.42857"
       id="path3821"
       inkscape:connector-curvature="0" />
    <path
       style="fill:none;stroke:#000000;stroke-width:1px;stroke-linecap:butt;stroke-linejoin:miter;stroke-opacity:1"
       d="m 558.57143,885.21933 c 9.52381,0 19.04762,0 28.57143,0 1.90476,0 3.84651,0.37355 5.71428,0 1.04412,-0.20883 1.82414,-1.17033 2.85715,-1.42858 0.92394,-0.23098 1.90476,0 2.85714,0 2.85714,0 5.71428,0 8.57143,0 7.61905,0 15.23809,0 22.85714,0 19.04762,0 38.09524,0 57.14286,0"
       id="path3823"
       inkscape:connector-curvature="0" />
    <rect
       style="fill:#98179d;fill-opacity:1;stroke:#ffffff;stroke-opacity:1"
       id="rect3827"
       width="337.14285"
       height="337.14285"
       x="863.10229"
       y="100.93361" />
    <path
       sodipodi:type="arc"
       style="fill:none;stroke:#ffffff;stroke-width:2.20000005;stroke-miterlimit:4;stroke-opacity:1;stroke-dasharray:none"
       id="path3829"
       sodipodi:cx="961.42859"
       sodipodi:cy="233.79076"
       sodipodi:rx="34.285713"
       sodipodi:ry="34.285713"
       d="m 995.7143,233.79076 a 34.285713,34.285713 0 1 1 -68.57142,0 34.285713,34.285713 0 1 1 68.57142,0 z"
       transform="translate(3.1448786e-7,-14.142136)" />
    <path
       sodipodi:type="arc"
       style="fill:none;stroke:#ffffff;stroke-width:2.20000005;stroke-miterlimit:4;stroke-opacity:1;stroke-dasharray:none"
       id="path3831"
       sodipodi:cx="1066.4286"
       sodipodi:cy="235.93361"
       sodipodi:rx="35"
       sodipodi:ry="35"
       d="m 1101.4286,235.93361 a 35,35 0 1 1 -70,0 35,35 0 1 1 70,0 z"
       transform="matrix(1.2798206,0,0,1.2798206,-312.55087,-94.303367)" />
    <rect
       style="fill:none;stroke:#ffffff;stroke-width:2.20000005;stroke-miterlimit:4;stroke-opacity:1;stroke-dasharray:none"
       id="rect3833"
       width="148.57143"
       height="71.428574"
       x="942.85712"
       y="271.3223" />
    <path
       style="fill:none;stroke:#ffffff;stroke-width:2.20000005;stroke-linecap:butt;stroke-linejoin:miter;stroke-miterlimit:4;stroke-opacity:1;stroke-dasharray:none"
       d="m 1112.0203,282.15913 0,47.14286 44.2857,21.42857 -1.4286,-87.14286 z"
       id="path3837"
       inkscape:connector-curvature="0" />
    <rect
       style="fill:#143a87;fill-opacity:1;stroke:#ffffff;stroke-opacity:1"
       id="rect3827-3"
       width="337.14285"
       height="337.14285"
       x="864.28577"
       y="462.36218" />
    <rect
       style="fill:none;stroke:#ffffff;stroke-width:2.20000005;stroke-miterlimit:4;stroke-opacity:1;stroke-dasharray:none"
       id="rect3857"
       width="165.71428"
       height="217.14285"
       x="952.85712"
       y="515.2193" />
    <rect
       style="fill:none;stroke:#ffffff;stroke-width:2.20000005;stroke-miterlimit:4;stroke-opacity:1;stroke-dasharray:none"
       id="rect3859"
       width="121.42857"
       height="170"
       x="974.28571"
       y="539.50507" />
    <rect
       style="fill:#148a22;fill-opacity:1;stroke:#ffffff;stroke-opacity:1"
       id="rect3827-6"
       width="337.14285"
       height="337.14285"
       x="870"
       y="810.93365" />
    <rect
       style="fill:none;stroke:#ffffff;stroke-width:2.20000005;stroke-miterlimit:4;stroke-opacity:1;stroke-dasharray:none"
       id="rect3879"
       width="124.28571"
       height="124.28571"
       x="950"
       y="942.36218" />
    <path
       style="fill:none;stroke:#ffffff;stroke-width:2.2;stroke-linecap:butt;stroke-linejoin:miter;stroke-opacity:1;stroke-miterlimit:4;stroke-dasharray:none"
       d="m 951.42857,940.93361 62.85713,-58.57143 101.4286,1.42857 -2.8572,111.42858 -35.7142,69.99997 -2.8572,-121.42855 42.8572,-61.42857 -102.8572,1.42857 z"
       id="path3881"
       inkscape:connector-curvature="0" />
    <rect
       style="fill:#169fa2;fill-opacity:1;stroke:#ffffff;stroke-opacity:1"
       id="rect3827-7"
       width="337.14285"
       height="337.14285"
       x="-365.71429"
       y="9.5050402" />
    <rect
       style="fill:none;stroke:#ffffff;stroke-width:2.20000005;stroke-miterlimit:4;stroke-opacity:1;stroke-dasharray:none"
       id="rect3901"
       width="238.57143"
       height="135.71428"
       x="-312.85715"
       y="108.07647" />
    <path
       style="fill:none;stroke:#ffffff;stroke-width:2;stroke-linecap:butt;stroke-linejoin:miter;stroke-opacity:1;stroke-miterlimit:4;stroke-dasharray:none"
       d="m -220,158.07647 -1.42857,51.42857 52.85714,-27.14286 z"
       id="path3903"
       inkscape:connector-curvature="0" />
    <rect
       style="fill:#211280;fill-opacity:1;stroke:#ffffff;stroke-opacity:1"
       id="rect3827-7-5"
       width="337.14285"
       height="337.14285"
       x="-358.57141"
       y="396.64789" />
    <rect
       style="fill:none;stroke:#ffffff;stroke-width:2;stroke-miterlimit:4;stroke-opacity:1;stroke-dasharray:none"
       id="rect3925"
       width="87.14286"
       height="87.14286"
       x="-287.14285"
       y="456.64789" />
    <rect
       style="fill:none;stroke:#ffffff;stroke-width:2;stroke-miterlimit:4;stroke-opacity:1;stroke-dasharray:none"
       id="rect3925-3"
       width="87.14286"
       height="87.14286"
       x="-199.28572"
       y="458.79074" />
    <rect
       style="fill:none;stroke:#ffffff;stroke-width:2;stroke-miterlimit:4;stroke-opacity:1;stroke-dasharray:none"
       id="rect3925-5"
       width="87.14286"
       height="87.14286"
       x="-196.42857"
       y="545.93359" />
    <rect
       style="fill:none;stroke:#ffffff;stroke-width:2;stroke-miterlimit:4;stroke-opacity:1;stroke-dasharray:none"
       id="rect3925-6"
       width="87.14286"
       height="87.14286"
       x="-285"
       y="544.505" />
    <rect
       style="fill:#961528;fill-opacity:1;stroke:#ffffff;stroke-opacity:1"
       id="rect3827-7-5-2"
       width="337.14285"
       height="337.14285"
       x="-371.42856"
       y="766.64789" />
    <rect
       style="fill:none;stroke:#ffffff;stroke-width:2;stroke-miterlimit:4;stroke-opacity:1;stroke-dasharray:none"
       id="rect3977"
       width="204.28572"
       height="201.42857"
       x="-301.42856"
       y="828.07648" />
    <path
       style="fill:none;stroke:#ffffff;stroke-width:2.20000005;stroke-linecap:butt;stroke-linejoin:miter;stroke-miterlimit:4;stroke-opacity:1;stroke-dasharray:none"
       d="m -218.57143,828.07647 c -2.85714,84.28571 -54.28571,100 -54.28571,100 L -270,1028.0765 l 141.42857,0 c 0,0 5.71429,-101.4286 1.42857,-105.71432 -4.28571,-4.28571 -31.42857,-97.14285 -31.42857,-97.14285 z"
       id="path3979"
       inkscape:connector-curvature="0"
       sodipodi:nodetypes="ccccscc" />
    <path
       style="fill:none;stroke:#ffffff;stroke-width:2.2;stroke-linecap:butt;stroke-linejoin:miter;stroke-opacity:1;stroke-miterlimit:4;stroke-dasharray:none"
       d="m -272.85714,962.36218 150,0 z"
       id="path3981"
       inkscape:connector-curvature="0" />
    <rect
       style="fill:#ffffff;fill-opacity:1;stroke:#ffffff;stroke-opacity:1"
       id="rect3767-1"
       width="398.57144"
       height="2.8571298"
       x="121.94279"
       y="465.04514" />
    <rect
       style="fill:#413ca8;fill-opacity:1;stroke:#ffffff;stroke-width:0.81684816;stroke-opacity:1"
       id="rect3773-2"
       width="80.613876"
       height="73.040298"
       x="396.07895"
       y="209.7403" />
  </g>
</svg>
